<?xml version="1.0" standalone="no"?>
<!DOCTYPE svg PUBLIC "-//W3C//DTD SVG 20010904//EN"
 "http://www.w3.org/TR/2001/REC-SVG-20010904/DTD/svg10.dtd">
<svg version="1.0" xmlns="http://www.w3.org/2000/svg"
 width="250.000000pt" height="250.000000pt" viewBox="0 0 250.000000 250.000000"
 preserveAspectRatio="xMidYMid meet">

<g transform="translate(0.000000,250.000000) scale(0.100000,-0.100000)"
fill="#000000" stroke="none">
<path d="M0 1250 l0 -1250 1250 0 1250 0 0 1250 0 1250 -1250 0 -1250 0 0
-1250z m1030 214 c85 -124 158 -228 161 -230 4 -2 78 100 165 226 l158 230
238 0 238 0 0 -100 0 -100 -165 0 -165 0 0 -345 0 -345 -115 0 -115 0 -2 178
-3 177 -113 -162 c-62 -90 -116 -163 -120 -163 -4 1 -81 109 -172 241 l-165
241 -3 -256 -2 -257 -113 3 -112 3 -3 443 -2 442 127 0 128 -1 155 -225z m403
198 c-10 -15 -40 -60 -67 -100 l-49 -72 -128 0 -129 0 0 100 0 100 196 0 196
0 -19 -28z"/>
</g>
</svg>
